<?xml version="1.0" encoding="utf-8"?>
<!-- Generator: Adobe Illustrator 27.7.0, SVG Export Plug-In . SVG Version: 6.00 Build 0)  -->
<svg version="1.1" xmlns="http://www.w3.org/2000/svg" xmlns:xlink="http://www.w3.org/1999/xlink" x="0px" y="0px"
	 viewBox="0 0 475.1 475.02" style="enable-background:new 0 0 475.1 475.02;" xml:space="preserve">
<style type="text/css">
	.st0{fill:none;}
	.st1{fill:#0053A6;}
	.st2{fill:#FFC400;}
</style>
<g id="Guides">
</g>
<g id="Clear_area">
	<rect x="-106.14" y="-105.98" class="st0" width="686.84" height="686.84"/>
</g>
<g id="Logo">
	<circle class="st1" cx="237.28" cy="237.44" r="237.14"/>
	<path class="st2" d="M265.23,183.4c-9.54,4.88-17.38,14.78-22.44,24.09c-11.93-0.95-22.43,2.91-29.21,6.37
		c-4.6-3.13-11.25-6.33-18.93-8.11c-3.55-11.26,0.79-25.55,12.89-35.29C230.54,151.98,263.52,161.85,265.23,183.4z M417.98,323.57
		c-75.16,33.56-131.87-38.92-131.87-38.92s45.88,105.92-38.7,150.55c-4.6,2.43-10.08,2.62-14.86,0.57
		c-109.42-46.84-40.86-167.86-40.86-167.86c-52.19,49.32-114.91,45.11-142.77,6.17c-2.5-3.5-3.08-8-1.65-12.05
		c15.46-44.11,58.01-63.71,85.26-71.85c4.23-1.26,9.46-2.83,13.79-4.12c3.52-1.05,4.39-5.62,1.51-7.9
		c-3.43-2.7-7.48-6.02-10.59-8.93c-25.6-23.95-38.13-51.78-26.41-79.11c2.21-5.15,6.76-8.94,12.21-10.22
		c47.14-11.1,74.64,27.49,74.64,27.49s22.31-59.93,69.62-69.38c5.93-1.18,12.14,0.76,16.2,5.24c24.83,27.44,6.05,78.39,6.05,78.39
		s31.07-36.01,85.41-10.78c6.33,2.94,10.18,9.46,9.85,16.43c-2.77,58.57-66.9,72.16-66.9,72.16s96.76,28.93,109.91,105.3
		C429.14,312.56,425.19,320.35,417.98,323.57z M276.9,200.56c6.73-6.95,8.73-16.86,4.14-25.15c-2.86-5.15-3.21-11.21-1.01-16.95
		c4.67-12.13-2.33-24-15.35-26.58c-6.03-1.19-10.89-4.46-13.6-9.1c-5.63-9.63-19.29-11.93-30.56-5.49c-5.25,3-11.11,4.13-16.36,3.2
		c-10.8-1.92-22.47,5.07-26.52,15.63c-1.92,5-5.6,9.34-10.25,12.09c-9.62,5.71-13.97,17.44-9.92,26.65
		c1.95,4.43,2.04,9.67,0.25,14.59v0c-3.76,10.34,1.04,21.29,11.04,24.76c4.85,1.68,8.82,5.28,11.03,10.04
		c4.07,8.78,13.92,13.29,23.63,11.21C239.98,268.52,283.81,249.28,276.9,200.56z"/>
</g>
</svg>
